/* XPM */
static char * xgopher_xpm[] = {
/*i.cionca*/
"64 38 10 1",
" 	s None	c None",
".	c blue",
"X	c dark olive green",
"o	c lightskyblue",
"O	c gray100",
"+	c yellow",
"@	c dark slate grey",
"#	c gray70",
"$	c #727277778585",
"%	c red",
"                            .........   XXXXXXXXX               ",
"                          .............XoooooooooX              ",
"                        .................OOooooooX              ",
"                      ..........+..........ooooooX              ",
"                     ......+++++++++++......oooooX              ",
"                    .....+++++...++++++X.....ooooX              ",
"                   ....++++++.....+++++Xoo....oooX              ",
"                  ....++++++.......++++XXXX....XXX              ",
"                  ...+++++++.......+++@@@@@@...@@@@             ",
"                 ....+++++++.......+++@#####....##@             ",
"                 ...+++++++++.....++++@@@@@@@...@@@             ",
"                ....++++++++++...+++++@$O$O$O....$O@            ",
"                ...++++++++++++++++++@$O$O$O$O...O$O@           ",
"               ....++++++++++++++++++@@@@@@@@@....@@@           ",
"  XXXXXXXXX    ....+++++++++........+++++%%+++....              ",
" XoooooooooX   ....+++++++++........+++++%%+++....              ",
" XoOOooooooX   ....+++++++++++....+++++++%%+++....              ",
" XoOoooooooX   ...++++++++++++....+++++++%%++++...              ",
" XoooooooooX   ....+++++++++++....+++++++%%+++....              ",
" XoooooooooX%%%....%%%%%%%%%%%....%%%%%%%%%+++....              ",
" XoooooooooX%%%....%%%%%%%%%%%....%%%%%%%%%+++....XXXXXXXXX     ",
" XXXXXXXXXXX   ....+++++++++++....+++++++%%+++....oooooooooX    ",
"@@@@@@@@@@@@@   ...+++++++++++....+++++++%%+++...XoOOooooooX    ",
"@###########@   ....++XXXXXXXX....+++++++%%++....XoOoooooooX    ",
"@@@@@@@@@@@@@    ...+Xoooooooo....+++++++%%++... XoooooooooX    ",
"O$O$O$O$O$O$O@   ....Xo  ooooo....+++++++%%+.... XoooooooooX    ",
"$O$O$O$O$O$O$O@   ...Xo oooooo....+++++++%%+...  XoooooooooX    ",
"@@@@@@@@@@@@@@@   ....oooooooo....+++++++%%....  XXXXXXXXXXX    ",
"                   ....oooooo......++++++%....  @@@@@@@@@@@@@   ",
"                    .....oo..........+++.....%%%@###########@   ",
"                     ......XXXXX++++++......%%%%@@@@@@@@@@@@@   ",
"                    @@..........@..........     @$O$O$O$O$O$O@  ",
"                    @###.................%%    @$O$O$O$O$O$O$O@ ",
"                    @@@@@@.............%%%%    @@@@@@@@@@@@@@@@ ",
"                   @O$O$O$O$.........                           ",
"                   @$O$O$O$O$O$O$O@                             ",
"                  @@@@@@@@@@@@@@@@@                             ",
"                                                                "};
